<svg width="393" height="642" viewBox="0 0 393 642" fill="none" xmlns="http://www.w3.org/2000/svg">
<path d="M253.828 63.7895C290.967 83.1673 315.233 116.222 351.594 136.747C392.927 160.079 447.235 162.149 482.159 192.679C520.741 226.408 556.672 269.976 558.577 317.691C560.48 365.368 523.002 406.542 492.241 445.24C464.33 480.354 431.623 513.978 387.857 532.467C346.813 549.806 296.945 533.897 253.543 546.08C205.148 559.664 171.12 603.963 120.372 607.548C67.6034 611.276 -2.66769 606.676 -30.2011 566.126C-62.076 519.182 -15.8106 459.861 -16.891 405.395C-17.5001 374.685 -27.2767 345.652 -35.1692 315.654C-45.1588 277.685 -69.8587 243.122 -69.8105 204.257C-69.7514 156.486 -68.7907 103.276 -34.8607 66.6275C-1.12199 30.1853 56.0895 11.0061 109.59 10.4801C162.049 9.96443 208.305 40.0375 253.828 63.7895Z" fill="#EEEFA2"/>
<circle cx="253.86" cy="381.232" r="34.3655" transform="rotate(1.76854 253.86 381.232)" fill="#FB8B4C"/>
<rect x="230.108" y="348.104" width="1.71828" height="15.0201" rx="0.859138" transform="rotate(-43.2315 230.108 348.104)" fill="#6A5B52"/>
<ellipse cx="248.172" cy="349.976" rx="9.07253" ry="10.0806" transform="rotate(22.4572 248.172 349.976)" fill="#D6D94B"/>
<circle cx="281.335" cy="383.85" r="1.76881" transform="rotate(1.76854 281.335 383.85)" fill="#E15C11"/>
<ellipse cx="276.448" cy="378.39" rx="1.76881" ry="1.51613" transform="rotate(1.76854 276.448 378.39)" fill="#E15C11"/>
<circle cx="268.635" cy="402.166" r="1.76881" transform="rotate(1.76854 268.635 402.166)" fill="#E15C11"/>
<ellipse cx="158.275" cy="420.914" rx="25.4337" ry="32.2372" transform="rotate(-48.2227 158.275 420.914)" fill="#D6D94B"/>
<ellipse cx="175.672" cy="439.441" rx="36.5165" ry="32.5551" transform="rotate(-48.2227 175.672 439.441)" fill="#D6D94B"/>
<path d="M130.081 396.092C129.474 395.749 129.337 394.936 129.797 394.413L131.056 392.983C131.474 392.508 132.206 392.485 132.654 392.932L139.257 399.539C139.665 399.948 139.686 400.604 139.304 401.038L139.173 401.187C138.767 401.649 138.06 401.686 137.608 401.269L135.104 398.963C135.042 398.906 134.974 398.856 134.9 398.815L130.081 396.092Z" fill="#6A5B52"/>
<ellipse cx="202.54" cy="430.016" rx="3.08216" ry="2.82531" transform="rotate(-18.2227 202.54 430.016)" fill="#A1A500"/>
<circle cx="193.873" cy="423.405" r="3.08216" transform="rotate(-18.2227 193.873 423.405)" fill="#A1A500"/>
<circle cx="192.641" cy="449.229" r="3.08216" transform="rotate(-18.2227 192.641 449.229)" fill="#A1A500"/>
<ellipse cx="331.574" cy="438.884" rx="41.6375" ry="34.8539" transform="rotate(-31.2508 331.574 438.884)" fill="#F8DD50"/>
<ellipse cx="300.977" cy="457.451" rx="10.5263" ry="8.65499" transform="rotate(-31.2508 300.977 457.451)" fill="#F8DD50"/>
<ellipse cx="362.17" cy="420.317" rx="10.5263" ry="8.65499" transform="rotate(-31.2508 362.17 420.317)" fill="#F8DD50"/>
<circle cx="335.659" cy="410.597" r="2.67212" transform="rotate(-36.5624 335.659 410.597)" fill="#E4C72A"/>
<circle cx="345.004" cy="411.983" r="2.67212" transform="rotate(-36.5624 345.004 411.983)" fill="#E4C72A"/>
<circle cx="337.733" cy="422.366" r="2.67212" transform="rotate(-36.5624 337.733 422.366)" fill="#E4C72A"/>
<path d="M65.9883 343.474C61.4637 345.39 56.3661 345.438 51.8175 343.607C47.269 341.777 43.6418 338.218 41.7339 333.713C38.7791 326.735 39.8058 320.133 41.0566 312.089C42.0297 305.832 43.1383 298.703 42.6149 289.846C42.5842 289.329 42.4164 287.821 42.4164 287.821C42.4164 287.821 42.4185 287.823 42.4225 287.828C42.4218 287.822 42.4215 287.819 42.4215 287.819C42.4215 287.819 43.3877 288.988 43.7381 289.371C49.7344 295.909 55.6259 300.074 60.7965 303.729C67.4442 308.428 72.9004 312.285 75.8553 319.262C77.7631 323.767 77.7954 328.849 75.945 333.39C74.1076 337.898 70.4813 341.571 65.9883 343.474Z" fill="#56CCF2"/>
<path d="M186.168 303.332C178.737 282.972 145.96 300.83 145.96 300.83C145.96 300.83 151.992 325.12 175.442 333.467C198.892 341.815 218.915 326.798 218.915 326.798C218.915 326.798 204.793 292.247 186.168 303.332Z" fill="#F596AF"/>
<path d="M186.168 303.332C178.737 282.972 145.96 300.83 145.96 300.83C145.96 300.83 159.866 305.78 183.316 314.127C206.766 322.474 218.915 326.798 218.915 326.798C218.915 326.798 204.793 292.247 186.168 303.332Z" fill="#FFBECF"/>
<circle cx="244.267" cy="497.072" r="36.2315" transform="rotate(7.28379 244.267 497.072)" fill="#FF9292"/>
<path d="M269.088 445.534C269.088 445.534 268.243 453.839 262.634 458.176C257.025 462.514 248.776 461.242 248.776 461.242C248.776 461.242 249.62 452.938 255.229 448.601C260.838 444.263 269.088 445.534 269.088 445.534Z" fill="#9AD94B"/>
<path d="M248.773 461.242C248.773 461.242 240.469 460.398 236.131 454.789C231.793 449.18 233.065 440.93 233.065 440.93C233.065 440.93 241.369 441.774 245.707 447.383C250.044 452.992 248.773 461.242 248.773 461.242Z" fill="#9AD94B"/>
<path d="M239.828 533.03C249.319 534.243 258.905 531.62 266.477 525.738C274.05 519.856 278.988 511.197 280.207 501.665C281.425 492.133 278.823 482.51 272.974 474.913C267.124 467.315 258.506 462.365 249.015 461.152L244.422 497.091L239.828 533.03Z" fill="#F36969"/>
<path d="M117.022 443.91C117.022 443.91 114.214 453.514 106.655 457.403C99.0965 461.292 89.6495 457.993 89.6495 457.993C89.6495 457.993 92.4574 448.388 100.016 444.499C107.575 440.61 117.022 443.91 117.022 443.91Z" fill="#D6D94B"/>
<path fill-rule="evenodd" clip-rule="evenodd" d="M119.24 479.785C117.466 485.317 111.969 488.619 106.404 487.807C111.403 490.382 113.957 496.265 112.184 501.796C110.41 507.328 104.913 510.63 99.3484 509.818C104.347 512.393 106.901 518.276 105.128 523.808C103.152 529.97 96.5547 533.364 90.3922 531.389C84.8604 529.616 81.5592 524.118 82.3704 518.554C79.7952 523.553 73.913 526.106 68.3812 524.333C62.8494 522.559 59.5482 517.062 60.3593 511.497C57.7842 516.496 51.9021 519.05 46.3702 517.277C40.2076 515.301 36.8134 508.704 38.7889 502.541C40.5622 497.01 46.0598 493.708 51.624 494.519C46.6252 491.944 44.0716 486.062 45.8449 480.53C47.6183 474.998 53.1158 471.697 58.6801 472.508C53.6813 469.933 51.1276 464.051 52.901 458.519C54.8765 452.357 61.4738 448.962 67.6364 450.938C73.1683 452.711 76.4695 458.209 75.6583 463.773C78.2334 458.774 84.1156 456.221 89.6474 457.994C95.1792 459.767 98.4805 465.265 97.6693 470.829C100.244 465.83 106.127 463.277 111.658 465.05C117.821 467.026 121.215 473.623 119.24 479.785ZM74.4714 467.476C72.1899 471.905 67.3125 474.414 62.3825 473.695C66.8115 475.977 69.3209 480.854 68.6022 485.784C70.8837 481.355 75.7613 478.846 80.6913 479.564C76.2623 477.283 73.7527 472.405 74.4714 467.476ZM84.3934 480.751C89.3234 481.47 94.201 478.961 96.4825 474.532C95.7638 479.462 98.2733 484.339 102.702 486.621C97.7723 485.902 92.8947 488.411 90.6132 492.84C91.3319 487.91 88.8224 483.033 84.3934 480.751ZM83.5572 514.851C85.8387 510.422 90.7163 507.913 95.6462 508.632C91.2173 506.35 88.7077 501.472 89.4264 496.542C87.1449 500.971 82.2673 503.481 77.3373 502.762C81.7663 505.044 84.2759 509.921 83.5572 514.851ZM67.4154 489.486C66.6967 494.416 69.2062 499.294 73.6352 501.576C68.7052 500.857 63.8276 503.366 61.5461 507.795C62.2648 502.865 59.7554 497.988 55.3265 495.706C60.2564 496.425 65.1339 493.915 67.4154 489.486Z" fill="#5D5FEF"/>
<path d="M329.604 321.585C330.352 320.845 331.624 321.257 331.796 322.295L332.889 328.908C332.932 329.173 333.057 329.418 333.246 329.609L337.961 334.373C338.702 335.121 338.29 336.393 337.251 336.565L330.638 337.658C330.373 337.702 330.128 337.827 329.937 338.016L325.173 342.731C324.425 343.471 323.153 343.059 322.981 342.02L321.888 335.407C321.844 335.142 321.719 334.898 321.531 334.707L316.816 329.943C316.075 329.194 316.487 327.922 317.526 327.751L324.139 326.658C324.404 326.614 324.649 326.489 324.84 326.3L329.604 321.585Z" fill="#FFBEF9"/>
<path d="M30.5127 352.95C30.7227 351.918 32.009 351.553 32.7293 352.321L37.3159 357.209C37.4997 357.405 37.7398 357.539 38.003 357.592L44.5711 358.929C45.6026 359.139 45.9675 360.425 45.1999 361.145L40.3122 365.732C40.1163 365.916 39.9823 366.156 39.9288 366.419L38.5921 372.987C38.3822 374.019 37.0958 374.384 36.3755 373.616L31.789 368.728C31.6051 368.532 31.3651 368.398 31.1019 368.345L24.5337 367.008C23.5023 366.798 23.1373 365.512 23.9049 364.792L28.7927 360.205C28.9885 360.021 29.1225 359.781 29.1761 359.518L30.5127 352.95Z" fill="#FB8B4C"/>
<path d="M187.266 353.743L188.751 359.545L193.766 355.973L191.384 361.487L197.658 361.408L192.319 364.527L197.455 367.97L191.199 367.504L193.235 373.154L188.45 369.28L186.61 374.979L185.125 369.177L180.11 372.749L182.491 367.235L176.218 367.314L181.556 364.195L176.421 360.752L182.677 361.218L180.641 355.568L185.425 359.442L187.266 353.743Z" fill="#FFD058"/>
<path d="M105.56 268.431L107.046 274.234L112.06 270.662L109.679 276.176L115.952 276.096L110.614 279.216L115.749 282.659L109.493 282.192L111.53 287.843L106.745 283.969L104.905 289.668L103.419 283.866L98.4045 287.438L100.786 281.924L94.5126 282.003L99.8509 278.884L94.7152 275.441L100.972 275.907L98.935 270.257L103.72 274.131L105.56 268.431Z" fill="#FFD058"/>
<path d="M175.327 498.34L176.91 504.145L182.213 500.582L179.702 506.092L186.343 506.024L180.697 509.134L186.141 512.587L179.516 512.109L181.682 517.763L176.61 513.88L174.671 519.577L173.088 513.772L167.785 517.334L170.296 511.824L163.655 511.893L169.301 508.782L163.857 505.33L170.482 505.808L168.316 500.153L173.389 504.036L175.327 498.34Z" fill="#BB98DD"/>
<path d="M234.593 602.286C233.101 597.681 235.624 592.739 240.229 591.248L304.003 570.586C308.607 569.094 313.549 571.618 315.041 576.222L316.421 580.481C317.702 584.436 316.032 588.763 312.372 590.732C290.043 602.744 270.931 609.064 245.254 612.483C241.139 613.031 237.255 610.505 235.976 606.555L234.593 602.286Z" fill="#F1CA9F"/>
<path d="M277.327 589.926C335.495 571.081 381.49 551.217 369.775 506.52C369.23 504.439 367.015 503.306 364.969 503.969L155.93 571.693C153.883 572.356 152.754 574.573 153.533 576.578C170.254 619.653 219.159 608.771 277.327 589.926Z" fill="#ECD6BC"/>
<rect x="91.8771" y="337.972" width="30.136" height="30.136" rx="6.37539" transform="rotate(-17.9168 91.8771 337.972)" fill="#4E9AFF"/>
<path d="M106.731 362.045C107.562 362.318 108.421 362.302 109.196 362.051C110.364 361.673 111.343 360.765 111.759 359.518C111.76 359.515 111.761 359.512 111.762 359.509C111.764 359.506 111.765 359.503 111.765 359.5L111.767 359.496C111.768 359.493 111.769 359.49 111.77 359.487L113.224 355.019L117.018 357.79C117.022 357.793 117.025 357.795 117.029 357.798C117.031 357.799 117.032 357.8 117.034 357.801C118.816 359.09 121.311 358.694 122.603 356.915C123.897 355.136 123.505 352.631 121.734 351.324L121.73 351.32C121.727 351.317 121.724 351.315 121.72 351.313L117.931 348.539L121.725 345.782C123.508 344.487 123.905 341.975 122.611 340.185C121.316 338.396 118.812 337.991 117.027 339.285L113.231 342.036L111.781 337.559C111.099 335.457 108.84 334.297 106.745 334.975C104.65 335.652 103.497 337.915 104.176 340.02L105.618 344.495L100.93 344.487C100.929 344.488 100.926 344.488 100.924 344.488C100.921 344.488 100.918 344.488 100.916 344.488C98.7175 344.49 96.9317 346.281 96.9305 348.486C96.9292 350.691 98.712 352.489 100.907 352.504C100.909 352.504 100.911 352.504 100.913 352.505L100.921 352.505L100.925 352.505L105.613 352.519L104.165 356.987C104.165 356.989 104.164 356.992 104.163 356.994C104.162 356.996 104.161 356.999 104.161 357.001C103.489 359.098 104.64 361.36 106.731 362.045Z" fill="#2F80ED"/>
<rect x="63.2911" y="393.553" width="30.136" height="30.136" rx="6.37539" transform="rotate(0.289691 63.2911 393.553)" fill="#4E9AFF"/>
<path d="M69.8796 421.062C70.5845 421.581 71.4045 421.833 72.2199 421.837C73.4469 421.844 74.6607 421.286 75.4454 420.232C75.4477 420.229 75.4498 420.227 75.4518 420.225C75.4537 420.222 75.4556 420.22 75.4574 420.217L75.4601 420.213C75.462 420.211 75.4637 420.208 75.4655 420.206L78.2425 416.416L80.9811 420.234C80.9838 420.238 80.9866 420.241 80.9893 420.244C80.9905 420.246 80.9917 420.248 80.993 420.25C82.283 422.031 84.777 422.434 86.5601 421.148C88.3452 419.862 88.7555 417.359 87.4816 415.564L87.4788 415.56C87.4764 415.556 87.4746 415.553 87.4716 415.55L84.7391 411.731L89.2049 410.298C91.3026 409.625 92.4651 407.363 91.7943 405.258C91.1236 403.153 88.8712 401.987 86.7714 402.658L82.3058 404.085L82.3276 399.379C82.3367 397.17 80.5532 395.362 78.351 395.351C76.1489 395.34 74.3472 397.129 74.3341 399.341L74.3063 404.043L69.8552 402.57C69.8535 402.57 69.8513 402.57 69.8492 402.569C69.8464 402.569 69.8435 402.567 69.8412 402.566C67.7524 401.882 65.4963 403.026 64.8063 405.12C64.1162 407.213 65.2479 409.479 67.3287 410.179C67.3306 410.18 67.3323 410.18 67.334 410.181L67.3413 410.184L67.3447 410.185L71.7937 411.663L69.0227 415.455C69.0216 415.457 69.0202 415.459 69.0187 415.461C69.0171 415.463 69.0156 415.465 69.0146 415.467C67.7206 417.249 68.1076 419.757 69.8796 421.062Z" fill="#2F80ED"/>
</svg>
